<?xml version="1.0" encoding="UTF-8" standalone="no"?>
<!DOCTYPE svg PUBLIC "-//W3C//DTD SVG 1.1//EN"
 "http://www.w3.org/Graphics/SVG/1.1/DTD/svg11.dtd">
<!-- Generated by graphviz version 2.32.0 (20130802.0446)
 -->
<!-- Title: G Pages: 1 -->
<svg width="4619pt" height="3830pt"
 viewBox="7.20 7.20 4612.20 3823.20" xmlns="http://www.w3.org/2000/svg" xmlns:xlink="http://www.w3.org/1999/xlink">
<g id="graph0" class="graph" transform="scale(1 1) rotate(0) translate(11.2 3819.2)">
<title>G</title>
<polygon fill="white" stroke="white" points="-4,5 -4,-3812 4602,-3812 4602,5 -4,5"/>
<!-- Cycas_micronesica -->
<g id="node1" class="node"><title>Cycas_micronesica</title>
<path fill="#b2df8a" stroke="#33a02c" stroke-width="10" d="M2538,-3807.5C2538,-3807.5 1704,-3807.5 1704,-3807.5 1698,-3807.5 1692,-3801.5 1692,-3795.5 1692,-3795.5 1692,-2428.5 1692,-2428.5 1692,-2422.5 1698,-2416.5 1704,-2416.5 1704,-2416.5 2538,-2416.5 2538,-2416.5 2544,-2416.5 2550,-2422.5 2550,-2428.5 2550,-2428.5 2550,-3795.5 2550,-3795.5 2550,-3801.5 2544,-3807.5 2538,-3807.5"/>
<text text-anchor="start" x="1968" y="-3771.5" font-family="Times New Roman,serif" font-style="italic" font-size="40.00">Cycas micronesica</text>
<text text-anchor="start" x="1933" y="-3725" font-family="Times New Roman,serif" font-size="40.00">Cycadales: Cycadaceae</text>
<text text-anchor="start" x="2066.5" y="-3679" font-family="Times New Roman,serif" font-size="40.00">fadang</text>
<polygon fill="#33a02c" stroke="#000000" points="1694,-3622 1694,-3666 2548,-3666 2548,-3622 1694,-3622"/>
<text text-anchor="start" x="2003.5" y="-3633" font-family="Times New Roman,serif" font-size="40.00">Endemic Plant</text>
<image xlink:href="images/Cycas_micronesica.png" width="850px" height="1152px" preserveAspectRatio="xMinYMin meet" x="1696" y="-3618"/>
<text text-anchor="start" x="1700" y="-2429" font-family="Times New Roman,serif" font-style="italic" font-size="40.00">C. micronesica</text>
<text text-anchor="start" x="1944" y="-2429" font-family="Times New Roman,serif" font-size="40.00"> infested with </text>
<text text-anchor="start" x="2173" y="-2429" font-family="Times New Roman,serif" font-style="italic" font-size="40.00">Aulacaspis yasumatsui</text>
</g>
<!-- Dihammus_marianarum -->
<g id="node3" class="node"><title>Dihammus_marianarum</title>
<path fill="#b2df8a" stroke="#33a02c" stroke-width="10" d="M817,-2077.5C817,-2077.5 289,-2077.5 289,-2077.5 283,-2077.5 277,-2071.5 277,-2065.5 277,-2065.5 277,-1332.5 277,-1332.5 277,-1326.5 283,-1320.5 289,-1320.5 289,-1320.5 817,-1320.5 817,-1320.5 823,-1320.5 829,-1326.5 829,-1332.5 829,-1332.5 829,-2065.5 829,-2065.5 829,-2071.5 823,-2077.5 817,-2077.5"/>
<text text-anchor="start" x="355.5" y="-2041.5" font-family="Times New Roman,serif" font-style="italic" font-size="40.00">Dihammus_marianarum</text>
<text text-anchor="start" x="339.5" y="-1995" font-family="Times New Roman,serif" font-size="40.00">Coleoptera: Cerambycidae</text>
<text text-anchor="start" x="467.5" y="-1949" font-family="Times New Roman,serif" font-size="40.00">stem borer</text>
<polygon fill="#33a02c" stroke="#000000" points="279,-1892 279,-1936 827,-1936 827,-1892 279,-1892"/>
<text text-anchor="start" x="429" y="-1903" font-family="Times New Roman,serif" font-size="40.00">Endemic Insect</text>
<image xlink:href="images/Dihammus_marianarum.png" width="544px" height="564px" preserveAspectRatio="xMinYMin meet" x="281" y="-1888"/>
</g>
<!-- Cycas_micronesica&#45;&gt;Dihammus_marianarum -->
<g id="edge8" class="edge"><title>Cycas_micronesica&#45;&gt;Dihammus_marianarum</title>
<path fill="none" stroke="black" stroke-width="10" d="M1691.68,-2895.97C1462.77,-2767.34 1186.58,-2588.46 980,-2380 899.636,-2298.9 826.989,-2200.1 765.346,-2103.21"/>
<polygon fill="black" stroke="black" points="787.475,-2089.09 749.293,-2077.63 743.006,-2117 787.475,-2089.09"/>
</g>
<!-- Aulacaspis_yasumatsui -->
<g id="node4" class="node"><title>Aulacaspis_yasumatsui</title>
<path fill="#fb9a99" stroke="#e31a1c" stroke-width="10" d="M1785,-2243C1785,-2243 1137,-2243 1137,-2243 1131,-2243 1125,-2237 1125,-2231 1125,-2231 1125,-1167 1125,-1167 1125,-1161 1131,-1155 1137,-1155 1137,-1155 1785,-1155 1785,-1155 1791,-1155 1797,-1161 1797,-1167 1797,-1167 1797,-2231 1797,-2231 1797,-2237 1791,-2243 1785,-2243"/>
<text text-anchor="start" x="1276.5" y="-2207.5" font-family="Times New Roman,serif" font-style="italic" font-size="40.00">Aulacaspis yasumatsui</text>
<text text-anchor="start" x="1270" y="-2161" font-family="Times New Roman,serif" font-size="40.00">Hemiptera: Diaspididae</text>
<text text-anchor="start" x="1281.5" y="-2115" font-family="Times New Roman,serif" font-size="40.00">cycad aulacaspis scale</text>
<polygon fill="#e31a1c" stroke="#000000" points="1127,-2018 1127,-2102 1795,-2102 1795,-2018 1127,-2018"/>
<text text-anchor="start" x="1327" y="-2069" font-family="Times New Roman,serif" font-size="40.00" fill="white">Invasive Species</text>
<text text-anchor="start" x="1227.5" y="-2029" font-family="Times New Roman,serif" font-size="40.00" fill="white">first record on Guam in 2003</text>
<image xlink:href="images/Aulacaspis_yasumatsui.png" width="664px" height="855px" preserveAspectRatio="xMinYMin meet" x="1129" y="-2014"/>
</g>
<!-- Cycas_micronesica&#45;&gt;Aulacaspis_yasumatsui -->
<g id="edge1" class="edge"><title>Cycas_micronesica&#45;&gt;Aulacaspis_yasumatsui</title>
<path fill="none" stroke="black" stroke-width="10" d="M1796.08,-2416.35C1773.21,-2367.47 1750.32,-2318.52 1727.83,-2270.45"/>
<polygon fill="black" stroke="black" points="1751.5,-2259.09 1715.01,-2243.04 1703.94,-2281.34 1751.5,-2259.09"/>
</g>
<!-- Chilades_pandava -->
<g id="node5" class="node"><title>Chilades_pandava</title>
<path fill="#fb9a99" stroke="#e31a1c" stroke-width="10" d="M2396.25,-2379.5C2396.25,-2379.5 1845.75,-2379.5 1845.75,-2379.5 1839.75,-2379.5 1833.75,-2373.5 1833.75,-2367.5 1833.75,-2367.5 1833.75,-1030.5 1833.75,-1030.5 1833.75,-1024.5 1839.75,-1018.5 1845.75,-1018.5 1845.75,-1018.5 2396.25,-1018.5 2396.25,-1018.5 2402.25,-1018.5 2408.25,-1024.5 2408.25,-1030.5 2408.25,-1030.5 2408.25,-2367.5 2408.25,-2367.5 2408.25,-2373.5 2402.25,-2379.5 2396.25,-2379.5"/>
<text text-anchor="start" x="1975" y="-2343.5" font-family="Times New Roman,serif" font-style="italic" font-size="40.00">Chilades pandava</text>
<text text-anchor="start" x="1921.5" y="-2297" font-family="Times New Roman,serif" font-size="40.00">Lepidoptera: Lycaenidae</text>
<text text-anchor="start" x="1962" y="-2251" font-family="Times New Roman,serif" font-size="40.00">cycad blue butterfly</text>
<polygon fill="#e31a1c" stroke="#000000" points="1836,-2154 1836,-2238 2407,-2238 2407,-2154 1836,-2154"/>
<text text-anchor="start" x="1987.5" y="-2205" font-family="Times New Roman,serif" font-size="40.00" fill="white">Invasive Species</text>
<text text-anchor="start" x="1888" y="-2165" font-family="Times New Roman,serif" font-size="40.00" fill="white">first record on Guam in 2005</text>
<image xlink:href="images/Chilades_pandava.png" width="567px" height="1128px" preserveAspectRatio="xMinYMin meet" x="1838" y="-2150"/>
</g>
<!-- Cycas_micronesica&#45;&gt;Chilades_pandava -->
<g id="edge3" class="edge"><title>Cycas_micronesica&#45;&gt;Chilades_pandava</title>
<path fill="none" stroke="black" stroke-width="10" d="M2121,-2416.35C2121,-2414.15 2121,-2411.94 2121,-2409.74"/>
<polygon fill="black" stroke="black" points="2147.25,-2409.55 2121,-2379.55 2094.75,-2409.55 2147.25,-2409.55"/>
</g>
<!-- Sus_scrofa -->
<g id="node7" class="node"><title>Sus_scrofa</title>
<path fill="#fb9a99" stroke="#e31a1c" stroke-width="10" d="M598.25,-745.5C598.25,-745.5 11.75,-745.5 11.75,-745.5 5.75,-745.5 -0.25,-739.5 -0.25,-733.5 -0.25,-733.5 -0.25,-248.5 -0.25,-248.5 -0.25,-242.5 5.75,-236.5 11.75,-236.5 11.75,-236.5 598.25,-236.5 598.25,-236.5 604.25,-236.5 610.25,-242.5 610.25,-248.5 610.25,-248.5 610.25,-733.5 610.25,-733.5 610.25,-739.5 604.25,-745.5 598.25,-745.5"/>
<text text-anchor="start" x="221.5" y="-709.5" font-family="Times New Roman,serif" font-style="italic" font-size="40.00">Sus scrofa</text>
<text text-anchor="start" x="138.5" y="-663" font-family="Times New Roman,serif" font-size="40.00">Aetiodactyla: Suidae</text>
<text text-anchor="start" x="230.5" y="-617" font-family="Times New Roman,serif" font-size="40.00">feral pigs</text>
<polygon fill="#e31a1c" stroke="#000000" points="2,-520 2,-604 609,-604 609,-520 2,-520"/>
<text text-anchor="start" x="171.5" y="-571" font-family="Times New Roman,serif" font-size="40.00" fill="white">Invasive Species</text>
<text text-anchor="start" x="4.5" y="-531" font-family="Times New Roman,serif" font-size="40.00" fill="white">introduced to Guam during the 1600s</text>
<image xlink:href="images/Sus_scrofa.png" width="500px" height="276px" preserveAspectRatio="xMinYMin meet" x="55.5" y="-516"/>
</g>
<!-- Cycas_micronesica&#45;&gt;Sus_scrofa -->
<g id="edge6" class="edge"><title>Cycas_micronesica&#45;&gt;Sus_scrofa</title>
<path fill="none" stroke="black" stroke-width="10" d="M1691.8,-2901.25C1483.59,-2777.77 1248.49,-2602.02 1107,-2380 775.794,-1860.3 1288.33,-1448.13 847,-1018 776.361,-949.153 710.753,-1035.68 628,-982 548.265,-930.276 483.753,-851.19 433.956,-771.548"/>
<polygon fill="black" stroke="black" points="456.299,-757.767 418.304,-745.705 411.392,-784.964 456.299,-757.767"/>
</g>
<!-- Erechthias_sp -->
<g id="node8" class="node"><title>Erechthias_sp</title>
<path fill="#fb9a99" stroke="#e31a1c" stroke-width="10" d="M3197.25,-2099C3197.25,-2099 2456.75,-2099 2456.75,-2099 2450.75,-2099 2444.75,-2093 2444.75,-2087 2444.75,-2087 2444.75,-1311 2444.75,-1311 2444.75,-1305 2450.75,-1299 2456.75,-1299 2456.75,-1299 3197.25,-1299 3197.25,-1299 3203.25,-1299 3209.25,-1305 3209.25,-1311 3209.25,-1311 3209.25,-2087 3209.25,-2087 3209.25,-2093 3203.25,-2099 3197.25,-2099"/>
<text text-anchor="start" x="2712" y="-2063.5" font-family="Times New Roman,serif" font-style="italic" font-size="40.00">Erechthias</text>
<text text-anchor="start" x="2887" y="-2063.5" font-family="Times New Roman,serif" font-size="40.00"> sp.</text>
<text text-anchor="start" x="2648.5" y="-2017" font-family="Times New Roman,serif" font-size="40.00">Lepidoptera: Tineidae</text>
<text text-anchor="start" x="2746" y="-1971" font-family="Times New Roman,serif" font-size="40.00">leaf miner</text>
<polygon fill="#e31a1c" stroke="#000000" points="2447,-1874 2447,-1958 3208,-1958 3208,-1874 2447,-1874"/>
<text text-anchor="start" x="2693.5" y="-1925" font-family="Times New Roman,serif" font-size="40.00" fill="white">Invasive Species</text>
<text text-anchor="start" x="2594" y="-1885" font-family="Times New Roman,serif" font-size="40.00" fill="white">first record on Guam in 2003</text>
<image xlink:href="images/Erechthias_sp.png" width="757px" height="567px" preserveAspectRatio="xMinYMin meet" x="2449" y="-1870"/>
</g>
<!-- Cycas_micronesica&#45;&gt;Erechthias_sp -->
<g id="edge7" class="edge"><title>Cycas_micronesica&#45;&gt;Erechthias_sp</title>
<path fill="none" stroke="black" stroke-width="10" d="M2468.57,-2416.35C2518.09,-2317.38 2567.76,-2218.12 2613.66,-2126.37"/>
<polygon fill="black" stroke="black" points="2637.2,-2138 2627.14,-2099.43 2590.25,-2114.51 2637.2,-2138"/>
</g>
<!-- Isoptera -->
<g id="node9" class="node"><title>Isoptera</title>
<path fill="#fb9a99" stroke="#e31a1c" stroke-width="10" d="M3768.25,-2235.5C3768.25,-2235.5 3257.75,-2235.5 3257.75,-2235.5 3251.75,-2235.5 3245.75,-2229.5 3245.75,-2223.5 3245.75,-2223.5 3245.75,-1174.5 3245.75,-1174.5 3245.75,-1168.5 3251.75,-1162.5 3257.75,-1162.5 3257.75,-1162.5 3768.25,-1162.5 3768.25,-1162.5 3774.25,-1162.5 3780.25,-1168.5 3780.25,-1174.5 3780.25,-1174.5 3780.25,-2223.5 3780.25,-2223.5 3780.25,-2229.5 3774.25,-2235.5 3768.25,-2235.5"/>
<text text-anchor="start" x="3448.5" y="-2199.5" font-family="Times New Roman,serif" font-style="italic" font-size="40.00">termites</text>
<text text-anchor="start" x="3448.5" y="-2153" font-family="Times New Roman,serif" font-size="40.00">Isoptera</text>
<text text-anchor="start" x="3434.5" y="-2107" font-family="Times New Roman,serif" font-size="40.00">3 species:</text>
<text text-anchor="start" x="3339.5" y="-2067" font-family="Times New Roman,serif" font-style="italic" font-size="40.00"> &#160;Coptotermes gestroi</text>
<text text-anchor="start" x="3316" y="-2027" font-family="Times New Roman,serif" font-style="italic" font-size="40.00"> &#160;Nasutitermes luzonicus</text>
<text text-anchor="start" x="3250.5" y="-1987" font-family="Times New Roman,serif" font-style="italic" font-size="40.00"> &#160;Schedorhinotermes longitostris</text>
<text text-anchor="start" x="3503.5" y="-1947" font-family="Times New Roman,serif" font-style="italic" font-size="40.00"> &#160;</text>
<polygon fill="#e31a1c" stroke="#000000" points="3248,-1890 3248,-1934 3779,-1934 3779,-1890 3248,-1890"/>
<text text-anchor="start" x="3379.5" y="-1901" font-family="Times New Roman,serif" font-size="40.00" fill="white">Invasive Species</text>
<image xlink:href="images/Isoptera.png" width="527px" height="720px" preserveAspectRatio="xMinYMin meet" x="3250" y="-1886"/>
</g>
<!-- Cycas_micronesica&#45;&gt;Isoptera -->
<g id="edge9" class="edge"><title>Cycas_micronesica&#45;&gt;Isoptera</title>
<path fill="none" stroke="black" stroke-width="10" d="M2550.16,-2906.04C2776.13,-2780.38 3043.6,-2601.11 3227,-2380 3257.13,-2343.67 3284.51,-2303.71 3309.32,-2261.92"/>
<polygon fill="black" stroke="black" points="3332.21,-2274.78 3324.43,-2235.68 3286.71,-2248.58 3332.21,-2274.78"/>
</g>
<!-- Lingaspis_rossi -->
<g id="node10" class="node"><title>Lingaspis_rossi</title>
<path fill="#fb9a99" stroke="#e31a1c" stroke-width="10" d="M4585,-2370C4585,-2370 3829,-2370 3829,-2370 3823,-2370 3817,-2364 3817,-2358 3817,-2358 3817,-1040 3817,-1040 3817,-1034 3823,-1028 3829,-1028 3829,-1028 4585,-1028 4585,-1028 4591,-1028 4597,-1034 4597,-1040 4597,-1040 4597,-2358 4597,-2358 4597,-2364 4591,-2370 4585,-2370"/>
<text text-anchor="start" x="4084" y="-2334.5" font-family="Times New Roman,serif" font-style="italic" font-size="40.00">Lingaspis rossi</text>
<text text-anchor="start" x="4016" y="-2288" font-family="Times New Roman,serif" font-size="40.00">Hemiptera: Diaspididae</text>
<polygon fill="#e31a1c" stroke="#000000" points="3819,-2191 3819,-2275 4595,-2275 4595,-2191 3819,-2191"/>
<text text-anchor="start" x="4073" y="-2242" font-family="Times New Roman,serif" font-size="40.00" fill="white">Invasive Species</text>
<text text-anchor="start" x="3974.5" y="-2202" font-family="Times New Roman,serif" font-size="40.00" fill="white"> &#160;&#160;&#160;first record on Guam 2013</text>
<image xlink:href="images/Lingaspis_rossi.png" width="772px" height="1155px" preserveAspectRatio="xMinYMin meet" x="3821" y="-2187"/>
</g>
<!-- Cycas_micronesica&#45;&gt;Lingaspis_rossi -->
<g id="edge11" class="edge"><title>Cycas_micronesica&#45;&gt;Lingaspis_rossi</title>
<path fill="none" stroke="black" stroke-width="10" d="M2550.38,-3003.66C2908.17,-2897.24 3415.77,-2705.13 3794.08,-2382.62"/>
<polygon fill="black" stroke="black" points="3811.31,-2402.43 3816.82,-2362.94 3776.96,-2362.73 3811.31,-2402.43"/>
</g>
<!-- Trichogrammatoidea_guamensis -->
<g id="node2" class="node"><title>Trichogrammatoidea_guamensis</title>
<path fill="#b2df8a" stroke="#33a02c" stroke-width="10" d="M2454,-820C2454,-820 1916,-820 1916,-820 1910,-820 1904,-814 1904,-808 1904,-808 1904,-174 1904,-174 1904,-168 1910,-162 1916,-162 1916,-162 2454,-162 2454,-162 2460,-162 2466,-168 2466,-174 2466,-174 2466,-808 2466,-808 2466,-814 2460,-820 2454,-820"/>
<text text-anchor="start" x="1923.5" y="-784.5" font-family="Times New Roman,serif" font-style="italic" font-size="40.00">Trichogrammatoidea guamensis</text>
<text text-anchor="start" x="1908.5" y="-738" font-family="Times New Roman,serif" font-size="40.00">Hymenoptera: Trichogrammatidae</text>
<text text-anchor="start" x="1985.5" y="-692" font-family="Times New Roman,serif" font-size="40.00">parasitizes lycaenid eggs</text>
<polygon fill="#33a02c" stroke="#000000" points="1906,-635 1906,-679 2464,-679 2464,-635 1906,-635"/>
<text text-anchor="start" x="2061" y="-646" font-family="Times New Roman,serif" font-size="40.00">Endemic Insect</text>
<image xlink:href="images/Trichogrammatoidea_guamensis.png" width="554px" height="465px" preserveAspectRatio="xMinYMin meet" x="1908" y="-631"/>
</g>
<!-- Dihammus_marianarum&#45;&gt;Sus_scrofa -->
<g id="edge5" class="edge"><title>Dihammus_marianarum&#45;&gt;Sus_scrofa</title>
<path fill="none" stroke="black" stroke-width="10" d="M475.297,-1320.14C439.067,-1143.95 396.679,-937.828 363.257,-775.297"/>
<polygon fill="black" stroke="black" points="388.932,-769.83 357.177,-745.733 337.508,-780.405 388.932,-769.83"/>
</g>
<!-- Rhyzobius_lophanthae -->
<g id="node11" class="node"><title>Rhyzobius_lophanthae</title>
<path fill="#fdbf6f" stroke="#ff7f00" stroke-width="10" d="M1131.25,-971C1131.25,-971 658.75,-971 658.75,-971 652.75,-971 646.75,-965 646.75,-959 646.75,-959 646.75,-23 646.75,-23 646.75,-17 652.75,-11 658.75,-11 658.75,-11 1131.25,-11 1131.25,-11 1137.25,-11 1143.25,-17 1143.25,-23 1143.25,-23 1143.25,-959 1143.25,-959 1143.25,-965 1137.25,-971 1131.25,-971"/>
<text text-anchor="start" x="716.5" y="-935.5" font-family="Times New Roman,serif" font-style="italic" font-size="40.00">Rhyzobius lophanthae</text>
<text text-anchor="start" x="686.5" y="-889" font-family="Times New Roman,serif" font-size="40.00">Coleoptera: Coccinellidae</text>
<polygon fill="#ff7f00" stroke="#000000" points="649,-792 649,-876 1142,-876 1142,-792 649,-792"/>
<text text-anchor="start" x="755.5" y="-843" font-family="Times New Roman,serif" font-size="40.00">Biocontrol Agent</text>
<text text-anchor="start" x="664" y="-803" font-family="Times New Roman,serif" font-size="40.00">introduced on Guam in 2005</text>
<image xlink:href="images/Rhyzobius_lophanthae.png" width="489px" height="773px" preserveAspectRatio="xMinYMin meet" x="651" y="-788"/>
</g>
<!-- Aulacaspis_yasumatsui&#45;&gt;Rhyzobius_lophanthae -->
<g id="edge2" class="edge"><title>Aulacaspis_yasumatsui&#45;&gt;Rhyzobius_lophanthae</title>
<path fill="none" stroke="black" stroke-width="10" d="M1206.15,-1154.98C1181.72,-1102.92 1157,-1050.26 1132.75,-998.576"/>
<polygon fill="black" stroke="black" points="1156.42,-987.233 1119.91,-971.228 1108.89,-1009.54 1156.42,-987.233"/>
</g>
<!-- Arrhenophagus_sp -->
<g id="node13" class="node"><title>Arrhenophagus_sp</title>
<path fill="#ffff99" stroke="#b15928" stroke-width="10" d="M1856,-821.5C1856,-821.5 1192,-821.5 1192,-821.5 1186,-821.5 1180,-815.5 1180,-809.5 1180,-809.5 1180,-172.5 1180,-172.5 1180,-166.5 1186,-160.5 1192,-160.5 1192,-160.5 1856,-160.5 1856,-160.5 1862,-160.5 1868,-166.5 1868,-172.5 1868,-172.5 1868,-809.5 1868,-809.5 1868,-815.5 1862,-821.5 1856,-821.5"/>
<text text-anchor="start" x="1370" y="-785.5" font-family="Times New Roman,serif" font-style="italic" font-size="40.00">Arrhenophagus</text>
<text text-anchor="start" x="1622" y="-785.5" font-family="Times New Roman,serif" font-size="40.00"> sp.</text>
<text text-anchor="start" x="1319" y="-739" font-family="Times New Roman,serif" font-size="40.00">Hymenoptera: Encyrtidae</text>
<polygon fill="#e31a1c" stroke="#000000" points="1182,-642 1182,-726 1866,-726 1866,-642 1182,-642"/>
<text text-anchor="start" x="1198.5" y="-693" font-family="Times New Roman,serif" font-size="40.00" fill="white">Fortuitously introduced biocontrol agent</text>
<text text-anchor="start" x="1184.5" y="-653" font-family="Times New Roman,serif" font-size="40.00" fill="white"> &#160;&#160;&#160;first record on Guam February 10, 2013</text>
<text text-anchor="start" x="1367" y="-607" font-family="Times New Roman,serif" font-size="40.00">Attacks male scales</text>
<image xlink:href="images/Arrhenophagus_sp.png" width="615px" height="428px" preserveAspectRatio="xMinYMin meet" x="1216.5" y="-592"/>
</g>
<!-- Aulacaspis_yasumatsui&#45;&gt;Arrhenophagus_sp -->
<g id="edge13" class="edge"><title>Aulacaspis_yasumatsui&#45;&gt;Arrhenophagus_sp</title>
<path fill="none" stroke="black" stroke-width="10" d="M1489.37,-1154.98C1494.73,-1052.33 1500.21,-947.345 1505.19,-852.074"/>
<polygon fill="black" stroke="black" points="1531.42,-853.161 1506.77,-821.833 1478.99,-850.422 1531.42,-853.161"/>
</g>
<!-- Chilades_pandava&#45;&gt;Trichogrammatoidea_guamensis -->
<g id="edge4" class="edge"><title>Chilades_pandava&#45;&gt;Trichogrammatoidea_guamensis</title>
<path fill="none" stroke="black" stroke-width="10" d="M2157.07,-1018.34C2160.13,-960.719 2163.13,-904.049 2165.98,-850.479"/>
<polygon fill="black" stroke="black" points="2192.21,-851.534 2167.58,-820.185 2139.78,-848.751 2192.21,-851.534"/>
</g>
<!-- Formicidae -->
<g id="node6" class="node"><title>Formicidae</title>
<path fill="#fb9a99" stroke="#e31a1c" stroke-width="10" d="M2949.25,-981.5C2949.25,-981.5 2514.75,-981.5 2514.75,-981.5 2508.75,-981.5 2502.75,-975.5 2502.75,-969.5 2502.75,-969.5 2502.75,-12.5 2502.75,-12.5 2502.75,-6.5 2508.75,-0.5 2514.75,-0.5 2514.75,-0.5 2949.25,-0.5 2949.25,-0.5 2955.25,-0.5 2961.25,-6.5 2961.25,-12.5 2961.25,-12.5 2961.25,-969.5 2961.25,-969.5 2961.25,-975.5 2955.25,-981.5 2949.25,-981.5"/>
<text text-anchor="start" x="2523" y="-945.5" font-family="Times New Roman,serif" font-size="40.00">Hymenoptera: Formicidae</text>
<text text-anchor="start" x="2522" y="-899" font-family="Times New Roman,serif" font-size="40.00">ants attending </text>
<text text-anchor="start" x="2757" y="-899" font-family="Times New Roman,serif" font-style="italic" font-size="40.00">C. pandava</text>
<text text-anchor="start" x="2643.5" y="-853" font-family="Times New Roman,serif" font-size="40.00">10 species:</text>
<text text-anchor="start" x="2550" y="-813" font-family="Times New Roman,serif" font-style="italic" font-size="40.00">Anoplolepis gracilipes</text>
<text text-anchor="start" x="2587.5" y="-773" font-family="Times New Roman,serif" font-style="italic" font-size="40.00">Myrmidon anceps</text>
<text text-anchor="start" x="2526.5" y="-733" font-family="Times New Roman,serif" font-style="italic" font-size="40.00">Paratrechina bourbonica</text>
<text text-anchor="start" x="2528" y="-693" font-family="Times New Roman,serif" font-style="italic" font-size="40.00">Paratrechina longicornis</text>
<text text-anchor="start" x="2548.5" y="-653" font-family="Times New Roman,serif" font-style="italic" font-size="40.00">Pheidole megacephala</text>
<text text-anchor="start" x="2583" y="-613" font-family="Times New Roman,serif" font-style="italic" font-size="40.00">Pheidole oceanica</text>
<text text-anchor="start" x="2581" y="-573" font-family="Times New Roman,serif" font-style="italic" font-size="40.00">Tapinoma indicum</text>
<text text-anchor="start" x="2508.5" y="-533" font-family="Times New Roman,serif" font-style="italic" font-size="40.00">Tapinoma melanocephalum</text>
<text text-anchor="start" x="2515" y="-493" font-family="Times New Roman,serif" font-style="italic" font-size="40.00">Tetramorium bicarinaturm</text>
<text text-anchor="start" x="2546" y="-453" font-family="Times New Roman,serif" font-style="italic" font-size="40.00">Technomyrmex albipes</text>
<text text-anchor="start" x="2722.5" y="-413" font-family="Times New Roman,serif" font-style="italic" font-size="40.00"> &#160;</text>
<polygon fill="#e31a1c" stroke="#000000" points="2505,-356 2505,-400 2960,-400 2960,-356 2505,-356"/>
<text text-anchor="start" x="2598.5" y="-367" font-family="Times New Roman,serif" font-size="40.00" fill="white">Invasive Species</text>
<image xlink:href="images/Formicidae.png" width="451px" height="348px" preserveAspectRatio="xMinYMin meet" x="2507" y="-352"/>
</g>
<!-- Chilades_pandava&#45;&gt;Formicidae -->
<g id="edge10" class="edge"><title>Chilades_pandava&#45;&gt;Formicidae</title>
<path fill="none" stroke="black" stroke-width="10" d="M2429.72,-1017.47C2448.02,-1002.21 2460.72,-999.882 2481.5,-981.836"/>
<polygon fill="black" stroke="black" points="2411,-999.07 2408.41,-1038.85 2448.18,-1036.13 2411,-999.07"/>
<polygon fill="black" stroke="black" points="2500.07,-1000.4 2502.72,-960.622 2462.95,-963.27 2500.07,-1000.4"/>
</g>
<!-- Aphytis_sp -->
<g id="node12" class="node"><title>Aphytis_sp</title>
<path fill="#ffff99" stroke="#b15928" stroke-width="10" d="M4539,-743.5C4539,-743.5 3875,-743.5 3875,-743.5 3869,-743.5 3863,-737.5 3863,-731.5 3863,-731.5 3863,-250.5 3863,-250.5 3863,-244.5 3869,-238.5 3875,-238.5 3875,-238.5 4539,-238.5 4539,-238.5 4545,-238.5 4551,-244.5 4551,-250.5 4551,-250.5 4551,-731.5 4551,-731.5 4551,-737.5 4545,-743.5 4539,-743.5"/>
<text text-anchor="start" x="4118.5" y="-707.5" font-family="Times New Roman,serif" font-style="italic" font-size="40.00">Aphytis</text>
<text text-anchor="start" x="4239.5" y="-707.5" font-family="Times New Roman,serif" font-size="40.00"> sp.</text>
<text text-anchor="start" x="3990.5" y="-661" font-family="Times New Roman,serif" font-size="40.00">Hymenoptera: Aphelinidae</text>
<polygon fill="#e31a1c" stroke="#000000" points="3865,-564 3865,-648 4549,-648 4549,-564 3865,-564"/>
<text text-anchor="start" x="3881.5" y="-615" font-family="Times New Roman,serif" font-size="40.00" fill="white">Fortuitously introduced biocontrol agent</text>
<text text-anchor="start" x="3867.5" y="-575" font-family="Times New Roman,serif" font-size="40.00" fill="white"> &#160;&#160;&#160;first record on Guam Juanuary 25, 2013</text>
<image xlink:href="images/Aphytis_sp.png" width="564px" height="318px" preserveAspectRatio="xMinYMin meet" x="3925" y="-560"/>
</g>
<!-- Lingaspis_rossi&#45;&gt;Aphytis_sp -->
<g id="edge12" class="edge"><title>Lingaspis_rossi&#45;&gt;Aphytis_sp</title>
<path fill="none" stroke="black" stroke-width="10" d="M4207,-1027.99C4207,-938.51 4207,-851.021 4207,-773.539"/>
<polygon fill="black" stroke="black" points="4233.25,-773.511 4207,-743.511 4180.75,-773.511 4233.25,-773.511"/>
</g>
</g>
</svg>
