<?xml version="1.0" encoding="UTF-8" standalone="no"?>
<!DOCTYPE svg PUBLIC "-//W3C//DTD SVG 1.1//EN"
 "http://www.w3.org/Graphics/SVG/1.1/DTD/svg11.dtd">
<!-- Generated by graphviz version 2.32.0 (20130802.0446)
 -->
<!-- Title: G Pages: 1 -->
<svg width="728pt" height="456pt"
 viewBox="0.00 0.00 728.00 456.00" xmlns="http://www.w3.org/2000/svg" xmlns:xlink="http://www.w3.org/1999/xlink">
<g id="graph0" class="graph" transform="scale(1 1) rotate(0) translate(4 452)">
<title>G</title>
<polygon fill="white" stroke="white" points="-4,5 -4,-452 725,-452 725,5 -4,5"/>
<text text-anchor="middle" x="360" y="-412" font-family="Times New Roman,serif" font-size="40.00">LEGEND</text>
<!-- endemic -->
<g id="node1" class="node"><title>endemic</title>
<path fill="#b2df8a" stroke="#33a02c" stroke-width="10" d="M708,-396C708,-396 12,-396 12,-396 6,-396 0,-390 0,-384 0,-384 0,-336 0,-336 0,-330 6,-324 12,-324 12,-324 708,-324 708,-324 714,-324 720,-330 720,-336 720,-336 720,-384 720,-384 720,-390 714,-396 708,-396"/>
<text text-anchor="start" x="142.5" y="-348.5" font-family="Times New Roman,serif" font-size="40.00">Endemic or Native Species</text>
</g>
<!-- invasive -->
<g id="node2" class="node"><title>invasive</title>
<path fill="#fb9a99" stroke="#e31a1c" stroke-width="10" d="M708,-288C708,-288 12,-288 12,-288 6,-288 0,-282 0,-276 0,-276 0,-228 0,-228 0,-222 6,-216 12,-216 12,-216 708,-216 708,-216 714,-216 720,-222 720,-228 720,-228 720,-276 720,-276 720,-282 714,-288 708,-288"/>
<text text-anchor="start" x="226.5" y="-240.5" font-family="Times New Roman,serif" font-size="40.00">Invasive Species</text>
</g>
<!-- endemic&#45;&gt;invasive -->
<g id="edge1" class="edge"><title>endemic&#45;&gt;invasive</title>
<path fill="none" stroke="black" stroke-width="0" d="M360,-323.998C360,-312.63 360,-300.008 360,-288.597"/>
<polygon fill="black" stroke="black" points="360,-288.328 360,-288.328 360,-288.328 360,-288.328"/>
</g>
<!-- intentional_biocontrol -->
<g id="node3" class="node"><title>intentional_biocontrol</title>
<path fill="#fdbf6f" stroke="#ff7f00" stroke-width="10" d="M708,-180C708,-180 12,-180 12,-180 6,-180 0,-174 0,-168 0,-168 0,-120 0,-120 0,-114 6,-108 12,-108 12,-108 708,-108 708,-108 714,-108 720,-114 720,-120 720,-120 720,-168 720,-168 720,-174 714,-180 708,-180"/>
<text text-anchor="start" x="21.5" y="-132.5" font-family="Times New Roman,serif" font-size="40.00">Intentionally Introduced Biocontrol Agent</text>
</g>
<!-- invasive&#45;&gt;intentional_biocontrol -->
<g id="edge2" class="edge"><title>invasive&#45;&gt;intentional_biocontrol</title>
<path fill="none" stroke="black" stroke-width="0" d="M360,-215.998C360,-204.63 360,-192.008 360,-180.597"/>
<polygon fill="black" stroke="black" points="360,-180.328 360,-180.328 360,-180.328 360,-180.328"/>
</g>
<!-- accidental_biocontrol -->
<g id="node4" class="node"><title>accidental_biocontrol</title>
<path fill="#ffff99" stroke="#b15928" stroke-width="10" d="M708,-72C708,-72 12,-72 12,-72 6,-72 0,-66 0,-60 0,-60 0,-12 0,-12 0,-6 6,-0 12,-0 12,-0 708,-0 708,-0 714,-0 720,-6 720,-12 720,-12 720,-60 720,-60 720,-66 714,-72 708,-72"/>
<text text-anchor="start" x="22.5" y="-24.5" font-family="Times New Roman,serif" font-size="40.00">Accidentally Introduced Biocontrol Agent</text>
</g>
<!-- intentional_biocontrol&#45;&gt;accidental_biocontrol -->
<g id="edge3" class="edge"><title>intentional_biocontrol&#45;&gt;accidental_biocontrol</title>
<path fill="none" stroke="black" stroke-width="0" d="M360,-107.998C360,-96.6297 360,-84.0079 360,-72.5969"/>
<polygon fill="black" stroke="black" points="360,-72.3275 360,-72.3275 360,-72.3275 360,-72.3275"/>
</g>
</g>
</svg>
